<?xml version="1.0" encoding="UTF-8"?>
<svg id="Layer_1" data-name="Layer 1" xmlns="http://www.w3.org/2000/svg" xmlns:xlink="http://www.w3.org/1999/xlink" viewBox="0 0 100 100">
  <defs>
    <style>
      .cls-1 {
        fill: none;
      }

      .cls-2 {
        clip-path: url(#clippath);
      }

      .cls-3 {
        fill: #fff;
      }

      .cls-4 {
        fill: #0a8066;
      }

      .cls-5 {
        clip-path: url(#clippath-1);
      }
    </style>
    <clipPath id="clippath">
      <rect class="cls-1" x="21.98" y="21.98" width="56.05" height="56.05"/>
    </clipPath>
    <clipPath id="clippath-1">
      <rect class="cls-1" x="21.98" y="21.98" width="56.05" height="56.05"/>
    </clipPath>
  </defs>
  <circle class="cls-4" cx="50" cy="50" r="45"/>
  <g class="cls-2">
    <g class="cls-5">
      <path class="cls-3" d="m38.45,22.31c-2.97.14-4.99.62-6.76,1.31-1.83.71-3.39,1.67-4.93,3.22-1.55,1.55-2.5,3.11-3.21,4.94-.69,1.78-1.15,3.8-1.28,6.77-.13,2.97-.16,3.92-.15,11.5.01,7.57.05,8.52.19,11.5.14,2.97.62,4.99,1.31,6.76.72,1.83,1.67,3.39,3.23,4.93,1.55,1.55,3.11,2.5,4.95,3.21,1.77.69,3.8,1.15,6.77,1.28,2.97.13,3.92.16,11.49.15,7.57-.01,8.52-.05,11.5-.19,2.97-.14,4.99-.62,6.76-1.31,1.83-.72,3.39-1.67,4.93-3.23,1.55-1.55,2.5-3.11,3.21-4.95.69-1.77,1.15-3.8,1.28-6.77.13-2.98.16-3.93.15-11.5-.01-7.57-.05-8.52-.19-11.49-.14-2.97-.62-4.99-1.31-6.77-.72-1.83-1.67-3.39-3.22-4.93-1.55-1.55-3.11-2.5-4.95-3.21-1.77-.69-3.8-1.15-6.77-1.28-2.97-.13-3.92-.16-11.5-.15-7.57.01-8.52.05-11.5.19m.33,50.41c-2.72-.12-4.19-.57-5.18-.95-1.3-.5-2.23-1.11-3.21-2.08-.98-.97-1.58-1.9-2.09-3.2-.38-.98-.84-2.46-.97-5.18-.14-2.94-.17-3.82-.18-11.27-.01-7.44.01-8.33.14-11.27.12-2.72.57-4.19.95-5.18.5-1.3,1.11-2.23,2.08-3.21.97-.98,1.9-1.58,3.2-2.09.98-.38,2.46-.84,5.18-.97,2.94-.14,3.82-.17,11.27-.18,7.45-.01,8.33.01,11.27.14,2.72.12,4.19.57,5.18.95,1.3.5,2.23,1.1,3.21,2.08.98.97,1.58,1.9,2.09,3.2.38.98.84,2.46.97,5.17.14,2.94.17,3.82.19,11.27.01,7.45-.01,8.33-.14,11.27-.12,2.72-.57,4.2-.95,5.18-.5,1.3-1.11,2.23-2.08,3.21-.97.97-1.9,1.58-3.2,2.09-.98.38-2.46.84-5.17.97-2.94.14-3.82.17-11.27.18-7.44.01-8.32-.01-11.27-.14m22.73-37.62c0,1.85,1.51,3.34,3.35,3.34,1.85,0,3.34-1.5,3.34-3.35,0-1.85-1.51-3.34-3.35-3.34-1.85,0-3.34,1.51-3.34,3.35m-25.83,14.93c.02,7.91,6.44,14.31,14.34,14.29,7.91-.02,14.31-6.44,14.29-14.34-.02-7.91-6.44-14.31-14.35-14.29-7.91.02-14.3,6.44-14.29,14.35m5.02,0c0-5.13,4.15-9.3,9.28-9.31,5.13,0,9.3,4.14,9.31,9.28,0,5.13-4.14,9.3-9.28,9.31-5.13,0-9.3-4.14-9.31-9.28"/>
    </g>
  </g>
</svg>