<?xml version="1.0" encoding="UTF-8"?>
<svg id="Layer_1" data-name="Layer 1" xmlns="http://www.w3.org/2000/svg" viewBox="0 0 99.61 99.61">
  <defs>
    <style>
      .cls-1 {
        fill: #ffffff;
      }

      .cls-2 {
        fill: none;
        stroke: #ffffff;
        stroke-linecap: round;
        stroke-linejoin: round;
        stroke-width: 2px;
      }
    </style>
  </defs>
  <path class="cls-2" d="M90.36,36.82V15.87c0-1.53-1.24-2.77-2.77-2.77H42.74c-1.53,0-2.77,1.24-2.77,2.77v25.4c0,1.53,1.24,2.77,2.77,2.77h26.54s6.3,9.67,11.99,9.67c0,0-1.81-2.01-2.19-5.04-.29-2.24,.3-4.49,.61-4.59,3.01,.03,7.21,.03,7.21,.03,2.03,0,3.46-.9,3.46-2.93v-4.35Z"/>
  <path class="cls-2" d="M58.75,47.34v14.11c0,1.53-1.24,2.77-2.77,2.77H29.45s-6.3,9.67-11.99,9.67c0,0,1.81-2.01,2.19-5.04,.29-2.24-.3-4.49-.61-4.59-3.01,.03-7.21,.03-7.21,.03-2.03,0-3.46-.9-3.46-2.93v-4.35s0-20.95,0-20.95c0-1.53,1.24-2.77,2.77-2.77h25.38"/>
  <circle class="cls-1" cx="24.11" cy="49.21" r="3.18"/>
  <circle class="cls-1" cx="33.28" cy="49.21" r="3.18"/>
  <circle class="cls-1" cx="42.45" cy="49.21" r="3.18"/>
</svg>
