<?xml version="1.0" encoding="UTF-8"?>
<svg id="Layer_1" data-name="Layer 1" xmlns="http://www.w3.org/2000/svg" viewBox="0 0 100 100">
  <defs>
    <style>
      .cls-1 {
        fill: #fff;
      }

      .cls-2 {
        fill: #0a8066;
      }
    </style>
  </defs>
  <circle class="cls-2" cx="50.28" cy="49.72" r="45"/>
  <path class="cls-1" d="m44.35,58.34v-17.24l15.15,8.62-15.15,8.62h0Zm33.71-22.67c-.67-2.51-2.63-4.49-5.13-5.16-4.52-1.22-22.65-1.22-22.65-1.22,0,0-18.13,0-22.65,1.22-2.49.67-4.46,2.65-5.13,5.16-1.21,4.55-1.21,14.05-1.21,14.05,0,0,0,9.5,1.21,14.05.67,2.51,2.63,4.49,5.13,5.16,4.52,1.22,22.65,1.22,22.65,1.22,0,0,18.13,0,22.65-1.22,2.49-.67,4.46-2.65,5.13-5.16,1.21-4.55,1.21-14.05,1.21-14.05,0,0,0-9.5-1.21-14.05h0Z"/>
</svg>