<?xml version="1.0" encoding="UTF-8"?>
<svg id="Layer_1" data-name="Layer 1" xmlns="http://www.w3.org/2000/svg" viewBox="0 0 100 100">
  <defs>
    <style>
      .cls-1 {
        fill: #fff;
      }

      .cls-2 {
        fill: #0a8066;
      }
    </style>
  </defs>
  <circle class="cls-2" cx="50" cy="50" r="45"/>
  <g id="Logo">
    <path id="white_background" data-name="white background" class="cls-1" d="m74.36,38.53c.03.5.03.99.03,1.49,0,15.24-11.6,32.82-32.82,32.82h0c-6.27,0-12.41-1.8-17.68-5.18.91.11,1.83.16,2.75.17,5.19,0,10.24-1.74,14.33-4.95-4.94-.09-9.27-3.31-10.78-8.01,1.73.33,3.51.26,5.21-.2-5.38-1.09-9.25-5.82-9.25-11.31v-.15c1.6.89,3.4,1.39,5.24,1.44-5.07-3.39-6.63-10.13-3.57-15.4,5.86,7.21,14.5,11.59,23.78,12.05-.93-4.01.34-8.21,3.34-11.02,4.65-4.37,11.95-4.14,16.32.5,2.58-.51,5.06-1.46,7.33-2.8-.86,2.67-2.66,4.94-5.07,6.38,2.29-.27,4.52-.88,6.62-1.82-1.55,2.32-3.5,4.34-5.76,5.98Z"/>
  </g>
</svg>